<?xml version="1.0" standalone="no"?>
<!DOCTYPE svg PUBLIC "-//W3C//DTD SVG 20010904//EN"
 "http://www.w3.org/TR/2001/REC-SVG-20010904/DTD/svg10.dtd">
<svg version="1.0" xmlns="http://www.w3.org/2000/svg"
 width="1082.000000pt" height="1082.000000pt" viewBox="0 0 1082.000000 1082.000000"
 preserveAspectRatio="xMidYMid meet">
<metadata>
Created by potrace 1.11, written by Peter Selinger 2001-2013
</metadata>
<g transform="translate(0.000000,1082.000000) scale(0.100000,-0.100000)"
fill="#000000" stroke="none">
<path d="M3315 9371 c-90 -23 -155 -79 -176 -152 -17 -55 0 -157 35 -209 42
-63 93 -79 283 -90 314 -18 533 -84 755 -227 553 -355 921 -1124 1034 -2163
60 -549 -27 -1276 -196 -1638 -242 -518 -779 -795 -1252 -646 -133 42 -211 87
-307 177 -173 162 -256 374 -254 647 2 239 77 464 234 696 105 156 255 304
380 376 32 18 59 36 59 41 0 4 -28 7 -63 7 -88 0 -307 27 -402 49 -545 131
-888 485 -980 1015 -42 241 12 436 159 581 81 80 141 112 271 146 77 20 114
24 260 24 142 0 188 -4 275 -24 153 -34 252 -67 364 -122 531 -262 913 -796
1081 -1509 20 -84 39 -119 31 -55 -3 22 -10 94 -16 161 -39 468 -189 889 -444
1248 -266 374 -685 652 -1126 747 -138 30 -358 37 -491 14 -392 -65 -686 -331
-786 -714 -37 -142 -44 -387 -14 -560 86 -506 426 -937 945 -1197 61 -31 110
-60 109 -64 -1 -5 -23 -38 -48 -73 -52 -74 -123 -221 -154 -316 -189 -581 17
-1322 449 -1614 90 -61 253 -135 370 -168 74 -21 106 -24 255 -24 177 0 213 5
360 52 317 102 627 390 804 748 141 286 212 605 246 1110 33 483 11 855 -81
1360 -174 946 -441 1566 -838 1942 -223 211 -470 340 -771 403 -107 22 -311
34 -360 21z"/>
<path d="M7335 9373 c-159 -23 -366 -85 -512 -154 -252 -120 -515 -365 -681
-636 -248 -402 -413 -887 -541 -1583 -71 -392 -91 -602 -91 -990 0 -519 49
-895 162 -1250 127 -398 415 -744 766 -919 253 -126 576 -147 835 -54 303 109
484 271 637 569 88 172 145 389 160 613 23 346 -66 683 -243 921 l-34 45 106
51 c428 209 759 567 900 976 112 324 103 707 -25 977 -134 285 -420 488 -750
532 -131 17 -353 6 -484 -25 -777 -183 -1351 -841 -1510 -1731 -21 -114 -54
-444 -46 -452 5 -5 10 14 41 137 173 695 555 1213 1081 1465 340 163 772 190
1030 65 126 -61 248 -224 284 -380 50 -211 -36 -558 -197 -804 -56 -86 -205
-236 -291 -295 -78 -52 -233 -130 -327 -164 -146 -52 -378 -92 -579 -100 l-59
-2 79 -50 c44 -27 121 -90 173 -140 194 -186 330 -413 398 -663 22 -84 26
-118 27 -257 1 -171 -10 -241 -58 -368 -88 -234 -280 -402 -539 -473 -155 -42
-361 -33 -527 22 -355 119 -641 433 -759 832 -116 391 -166 929 -127 1372 61
705 252 1306 555 1750 129 190 287 349 461 465 238 159 454 227 773 245 216
11 271 35 313 135 21 51 22 151 1 191 -25 49 -91 101 -148 118 -50 15 -179 19
-254 9z"/>
<path d="M1550 5043 c-242 -19 -474 -110 -670 -263 -277 -217 -430 -431 -494
-690 -55 -227 -50 -578 14 -871 60 -279 213 -593 398 -822 235 -290 485 -472
842 -612 312 -123 666 -173 1033 -146 836 62 1537 388 2116 985 251 259 484
619 612 948 19 49 36 88 39 88 4 0 26 -48 49 -107 272 -673 818 -1253 1496
-1586 391 -192 774 -295 1227 -329 281 -20 624 14 863 87 580 176 1037 574
1280 1115 124 275 178 544 179 885 0 248 -35 418 -122 593 -123 246 -442 533
-714 641 -206 83 -497 110 -758 70 -170 -26 -279 -90 -331 -194 -28 -57 -31
-72 -27 -132 8 -143 112 -263 273 -316 50 -17 92 -21 250 -23 303 -4 433 -23
626 -90 328 -114 520 -299 589 -569 59 -231 -17 -639 -185 -991 -95 -199 -179
-314 -340 -463 -146 -136 -322 -235 -545 -308 -286 -93 -496 -119 -908 -110
-278 6 -396 17 -584 56 -871 181 -1628 839 -2038 1770 -45 103 -124 320 -118
326 2 2 17 -26 33 -63 152 -358 366 -666 619 -895 283 -255 564 -412 876 -489
87 -21 422 -17 535 6 228 47 397 137 551 292 144 146 219 296 244 493 29 223
-29 431 -159 573 -94 103 -189 122 -258 53 -27 -27 -33 -40 -33 -77 0 -60 36
-131 110 -213 112 -126 161 -231 175 -376 13 -122 -43 -263 -153 -391 -56 -65
-158 -156 -217 -193 -26 -16 -24 -12 16 33 126 145 147 312 59 489 -84 171
-226 281 -349 271 -62 -6 -91 -31 -91 -80 0 -65 34 -101 171 -181 155 -90 213
-173 213 -302 0 -77 -23 -142 -70 -197 -42 -51 -71 -69 -183 -116 l-106 -44
-165 -4 c-117 -4 -188 -1 -245 9 l-80 14 105 0 c125 -1 199 18 262 66 55 42
82 91 97 175 10 56 9 75 -3 117 -35 115 -189 190 -245 119 -12 -15 -21 -37
-21 -49 0 -33 37 -75 86 -96 119 -50 102 -189 -31 -255 -47 -22 -74 -28 -154
-32 -189 -9 -411 61 -604 192 -263 177 -518 411 -633 581 -133 196 -245 411
-343 658 -94 238 -108 290 -122 450 l-12 147 -39 0 -38 0 0 -62 c0 -126 -21
-240 -72 -388 -99 -284 -221 -536 -373 -765 -109 -165 -232 -293 -438 -458
-206 -163 -316 -233 -454 -287 -127 -49 -229 -70 -341 -70 -141 0 -229 36
-272 112 -42 74 -22 146 48 175 86 35 118 107 71 154 -49 49 -177 0 -227 -86
-20 -35 -23 -50 -19 -123 6 -107 33 -164 101 -210 72 -48 144 -66 261 -66
l100 1 -80 -14 c-55 -10 -130 -13 -240 -10 -157 4 -161 5 -255 43 -156 62
-200 98 -246 199 -39 85 -38 163 5 250 37 75 79 114 200 184 100 59 111 67
134 101 23 32 23 113 0 131 -28 24 -140 18 -198 -10 -79 -39 -167 -137 -223
-249 l-47 -95 0 -107 c0 -101 2 -109 35 -175 19 -38 57 -91 84 -119 34 -35 40
-45 20 -32 -114 73 -247 204 -308 304 -57 94 -76 158 -76 255 0 153 48 269
166 399 136 152 153 277 44 333 -81 42 -182 -15 -274 -155 -82 -123 -112 -254
-103 -447 5 -133 22 -205 71 -309 42 -89 79 -141 164 -228 150 -155 332 -252
562 -302 115 -24 384 -30 496 -11 467 82 1004 478 1311 967 77 122 159 278
214 407 24 56 45 101 46 99 4 -4 -59 -188 -95 -276 -51 -127 -106 -239 -181
-373 -444 -793 -1135 -1324 -1921 -1476 -210 -40 -286 -46 -630 -46 -274 0
-356 3 -450 18 -303 47 -570 143 -775 278 -46 30 -130 103 -196 169 -188 189
-291 363 -389 656 -76 229 -103 377 -104 559 -1 133 2 158 23 220 104 304 324
481 721 580 146 37 249 47 438 46 261 -2 368 28 473 130 160 156 124 394 -75
485 -127 58 -354 84 -576 67z"/>
</g>
</svg>
